HIERARCHY
ROOT Hips
{
     OFFSET 1.88212 96.90440 -13.34250
     CHANNELS 6 Xposition Yposition Zposition Zrotation Xrotation Yrotation
     JOINT Spine
     {
          OFFSET 0.00000 11.89050 0.00000
          CHANNELS 3 Zrotation Xrotation Yrotation
          JOINT Spine1
          {
               OFFSET -0.00000 25.65740 0.12766
               CHANNELS 3 Zrotation Xrotation Yrotation
               JOINT HEad
               {
                    OFFSET 0.00000 8.73416 0.01134
                    CHANNELS 3 Zrotation Xrotation Yrotation
                    End Site
                    {
                         OFFSET -0.29000 12.77420 2.51395
                    }
               }
               JOINT LeftShoulder1
               {
                    OFFSET 8.99000 -0.36225 -0.22000
                    CHANNELS 3 Zrotation Xrotation Yrotation
                    JOINT LeftArm
                    {
                         OFFSET 10.28270 -0.00338 0.32212
                         CHANNELS 3 Zrotation Xrotation Yrotation
                         JOINT LeftForeArm
                         {
                              OFFSET 32.76690 0.09914 -1.42434
                              CHANNELS 3 Zrotation Xrotation Yrotation
                              JOINT LeftHand
                              {
                                   OFFSET 27.56430 0.08536 1.02216
                                   CHANNELS 3 Zrotation Xrotation Yrotation
                                   End Site
                                   {
                                        OFFSET 16.74430 -0.60000 1.50291
                                   }
                              }
                         }
                    }
               }
               JOINT RightShoulder
               {
                    OFFSET -8.99000 -0.36225 -0.22000
                    CHANNELS 3 Zrotation Xrotation Yrotation
                    JOINT RightArm
                    {
                         OFFSET -10.28270 -0.00338 0.32212
                         CHANNELS 3 Zrotation Xrotation Yrotation
                         JOINT RightForeArm
                         {
                              OFFSET -32.89710 0.09914 -1.42434
                              CHANNELS 3 Zrotation Xrotation Yrotation
                              JOINT RightHand
                              {
                                   OFFSET -27.49210 0.08536 1.02216
                                   CHANNELS 3 Zrotation Xrotation Yrotation
                                   End Site
                                   {
                                        OFFSET -16.63120 -0.60000 1.50291
                                   }
                              }
                         }
                    }
               }
          }
     }
     JOINT LeftUpLeg
     {
          OFFSET 8.94580 -8.66707 0.10165
          CHANNELS 3 Zrotation Xrotation Yrotation
          JOINT LeftLeg
          {
               OFFSET 0.00000 -44.42270 1.37270
               CHANNELS 3 Zrotation Xrotation Yrotation
               JOINT LeftFoot
               {
                    OFFSET -0.25355 -42.09240 -1.46059
                    CHANNELS 3 Zrotation Xrotation Yrotation
                    JOINT LeftToes
                    {
                         OFFSET -0.04000 -4.41509 8.49910
                         CHANNELS 3 Zrotation Xrotation Yrotation
                         End Site
                         {
                              OFFSET 0.08000 -0.04745 9.77979
                         }
                    }
               }
          }
     }
     JOINT RightUpLeg
     {
          OFFSET -8.94580 -8.66707 0.10165
          CHANNELS 3 Zrotation Xrotation Yrotation
          JOINT RightLeg
          {
               OFFSET 0.00000 -44.42270 1.37270
               CHANNELS 3 Zrotation Xrotation Yrotation
               JOINT RightFoot
               {
                    OFFSET 0.25355 -42.09240 -1.46059
                    CHANNELS 3 Zrotation Xrotation Yrotation
                    JOINT RightToes
                    {
                         OFFSET 0.04000 -4.41509 8.49910
                         CHANNELS 3 Zrotation Xrotation Yrotation
                         End Site
                         {
                              OFFSET -0.08000 -0.13745 9.77979
                         }
                    }
               }
          }
     }
}
MOTION
Frames: 19
Frame Time: 0.01667
27.38270 66.92921 -140.74084 11.68149 -0.86816 -17.56933 -7.68222 39.26747 -3.03888 -0.00410 0.02013 0.00247 3.41755 -15.30404 16.54859 -6.47527 7.30556 -3.46710 -99.74118 -58.46024 -62.03792 -45.68929 60.39846 -97.77058 6.60393 10.88980 -3.00368 15.42692 8.51505 3.06092 63.52483 -20.92217 66.20331 26.60356 47.68898 114.34842 1.06060 22.05323 -0.49395 18.12523 -47.04415 -19.24582 -15.15975 49.02871 17.83002 38.74510 0.00020 -0.01035 -67.20924 -23.12080 -1.33146 -45.78872 -36.55393 -15.81950 -28.46754 78.78638 14.26148 50.71215 0.05517 0.06687 -45.78074 -58.38373 -1.54236 
24.81406 67.45425 -140.69974 11.32036 -1.50070 -18.52960 -7.87158 37.33298 -3.74547 -0.00583 0.02013 0.00241 3.20950 -14.65226 17.67879 -7.30544 8.36756 -2.39475 -99.79552 -59.69201 -62.18052 -46.62543 60.88047 -97.70596 6.66905 10.70640 -3.03665 14.64457 9.86908 3.59221 63.35261 -20.65907 66.99148 26.31111 47.12951 113.78204 -5.30694 6.81022 -1.23706 21.18418 -43.26043 -20.88806 -17.16380 45.22290 21.48475 36.65517 0.00428 -0.00930 -48.21200 -10.93148 12.11891 -45.80865 -35.41783 -17.49809 -21.40697 80.09116 9.22200 53.89061 0.04948 0.05810 -50.19407 -61.21741 -0.38421 
22.08269 68.19374 -140.62476 10.77502 -2.12807 -19.46773 -8.13247 35.30883 -4.35472 -0.00581 0.01839 0.00094 3.09008 -13.59749 18.90806 -8.01769 9.34311 -1.35808 -99.87035 -60.87834 -62.43558 -47.70896 61.21662 -97.35533 6.72623 10.46056 -2.99614 14.34657 11.16781 3.83942 61.42112 -21.95781 70.52449 23.93990 45.51714 112.66785 6.44286 29.36220 -2.65678 23.71943 -39.83012 -22.63499 -18.73717 41.99869 25.65619 17.38183 0.22757 -0.08911 -36.34664 -14.83084 5.57987 -45.26881 -33.80590 -18.36302 -8.00142 80.85027 -2.26689 56.92570 0.04432 0.05163 -54.79979 -63.79334 0.99506 
19.24617 69.11908 -140.50694 10.06366 -2.72093 -20.36180 -8.46023 33.18821 -4.85660 -0.00491 0.02038 0.00352 3.04429 -12.15956 20.16096 -8.87690 10.28275 -0.05536 -106.25723 -60.09690 -70.75161 -52.01591 61.53868 -94.75262 6.22363 10.78134 1.73884 11.57542 1.39944 1.05277 60.37139 -14.14201 64.02307 22.67693 44.51128 111.88104 3.82538 15.35769 -8.28216 25.93694 -35.95199 -23.30557 -18.35264 38.92872 27.66903 -1.89222 0.26106 0.00770 -15.22598 -10.57946 7.49123 -44.21080 -31.72752 -18.36922 9.88083 80.44502 -18.30234 59.98908 0.03989 0.04795 -59.19987 -66.18005 2.74785 
16.33474 70.21830 -140.35953 9.20784 -3.24879 -21.20570 -8.85803 30.95032 -5.23229 -0.00641 0.02124 0.00363 3.06524 -10.34516 21.38878 -8.93907 1.16877 -5.50818 -92.86442 -68.50268 -55.61435 -55.16915 61.88374 -92.79122 5.99298 10.87119 4.24076 11.70920 3.94412 1.83228 59.13049 -15.12741 65.66850 21.89972 43.99411 111.50304 1.18445 20.07942 -1.37270 27.47104 -32.10362 -23.07156 -18.71213 37.66499 29.91619 -7.23801 0.18954 -0.03655 -12.37555 -11.53200 4.73396 -42.72478 -29.07557 -17.54452 20.93885 77.32199 -26.13933 63.74472 -0.02285 0.05959 -66.85372 -66.63094 1.49682 
13.39048 71.51314 -140.17834 8.24118 -3.68819 -21.99243 -9.31103 28.61760 -5.49396 -0.00604 0.02539 0.00456 3.12724 -8.22735 22.56177 -9.10127 3.45678 -3.73408 -98.62548 -68.05044 -62.45498 -57.44977 62.12125 -90.87638 7.54516 7.59022 -12.83544 12.02247 6.34806 2.53310 57.95108 -15.77287 66.54420 21.50491 43.53428 111.11484 0.13307 12.70307 -5.05377 28.26683 -28.68160 -22.00343 -19.38710 37.86237 32.18824 -15.80169 0.29739 -0.12036 -11.88649 0.93950 11.01971 -40.75970 -26.05147 -15.86992 27.20956 73.16360 -28.06719 67.99548 -0.06743 0.11999 -77.24355 -66.02579 -2.46299 
10.46309 73.03040 -139.94658 7.20514 -4.02261 -22.71502 -9.79537 26.20182 -5.64050 -0.00444 0.02808 0.00549 3.19778 -5.86479 23.64460 -8.98016 5.63907 -2.21503 -102.98818 -67.54006 -67.52097 -59.16245 62.23041 -88.93523 6.14729 10.53900 3.06941 12.57734 8.66118 3.14567 56.74446 -16.23905 66.93995 21.30920 43.09814 110.86513 -1.38117 15.73750 -0.87670 28.37625 -25.93396 -20.09880 -20.33819 39.51447 33.84747 -19.54775 0.19971 -0.06848 -3.92945 -8.39952 2.91837 -38.36850 -22.72168 -13.40088 28.07156 67.57162 -24.81655 45.36709 0.57441 -0.48667 -28.67597 -59.18072 28.44959 
7.60956 74.74455 -139.64722 6.16523 -4.25276 -23.36557 -10.29981 23.71609 -5.66165 -0.00187 0.03149 0.00639 3.23381 -3.32225 24.59962 -8.57397 7.76526 -0.79552 -106.29303 -66.98846 -71.28312 -60.63750 62.26802 -87.34999 6.87438 8.66571 -7.47897 13.40539 10.90614 3.65633 55.49061 -16.61009 67.04607 21.22865 42.62858 110.56168 -1.98268 11.63143 -2.97162 27.88817 -23.97717 -17.34639 -21.09312 42.31229 34.58354 -25.45763 0.24438 -0.13436 0.14425 -7.58304 1.52837 -35.91840 -19.97282 -11.06188 28.42551 63.38777 -20.38648 23.74544 0.98752 -0.31091 -30.89288 -60.90608 2.85285 
4.87762 76.59598 -139.30133 5.17633 -4.38223 -23.93339 -10.64383 21.57305 -5.71907 -0.00011 0.03015 0.00726 3.08878 -1.06349 25.53437 -8.10190 9.45630 0.39637 -109.01414 -66.43816 -74.36877 -61.84435 62.24973 -85.74242 5.97620 10.51591 1.83883 14.31002 12.72009 4.15447 54.24611 -16.87173 66.98415 21.18920 42.16714 110.33072 -3.00540 13.28831 -0.28766 26.87007 -22.79783 -13.78241 -19.80906 44.42078 33.08678 -20.99762 -0.07464 0.02323 -3.82022 -10.95263 -1.84304 -33.31559 -17.57291 -8.83139 26.10947 59.20799 -13.04093 19.63882 0.23285 0.02695 -12.42147 -41.49117 15.34989 
2.29251 78.51086 -138.94487 4.27451 -4.42120 -24.39945 -10.84603 19.73554 -5.81169 0.00134 0.02893 0.00820 1.41558 1.43285 27.13478 -7.59895 10.78108 1.46831 -111.09481 -65.92947 -76.74830 -62.90117 62.25665 -84.50561 6.17167 9.35559 -4.50187 15.22392 14.16498 4.65940 53.08596 -17.02688 66.81422 21.15322 41.72386 110.07743 -3.40140 10.78300 -1.39905 25.37684 -22.33701 -9.48697 -16.73156 46.29195 29.57798 -21.68609 -0.00314 -0.01814 -18.66249 -9.40149 -9.49214 -30.51219 -15.46320 -6.72065 22.77692 56.28170 -7.02933 20.12772 -0.02518 -0.04856 -19.45853 -43.78634 4.43614 
-0.14560 80.39542 -138.61172 3.45412 -4.37146 -24.73601 -10.89619 18.18341 -5.95064 0.00254 0.02745 0.00881 -0.28472 3.51700 28.73186 -7.10241 11.79343 2.34971 -112.66793 -65.47129 -78.57993 -63.71431 62.30034 -83.41627 5.71630 10.50315 1.17085 16.08009 15.28858 5.14438 52.07548 -17.05288 66.57883 21.10235 41.32877 109.87763 -4.13223 11.54146 0.33017 23.85337 -22.19961 -4.41700 -9.92426 48.14476 22.65195 -23.25533 0.01206 0.00653 -10.52423 -11.31035 -8.19552 -28.06585 -13.67355 -4.93069 15.10771 54.03464 0.21208 21.74514 -0.05104 -0.03200 -18.70238 -24.14274 4.98446 
-2.45850 82.18802 -138.32826 2.72308 -4.24701 -24.93956 -10.81838 16.89347 -6.11895 0.00340 0.02608 0.00935 -2.01224 5.21752 30.29065 -6.60566 12.53855 3.13052 -113.60172 -65.06884 -79.69145 -64.32236 62.41270 -82.73018 5.76571 9.68640 -2.49745 16.83935 16.13082 5.62092 51.24541 -16.94668 66.30401 21.03185 40.98184 109.67456 -4.35543 9.93934 -0.24368 22.06309 -22.54771 1.21105 -4.71832 47.81795 14.71522 -21.18552 0.03222 -0.00832 -13.62107 -10.75662 -9.19318 -25.80256 -12.18409 -3.39647 11.05592 52.12274 3.77318 22.13748 -0.00899 0.01216 -19.13862 -32.48855 0.68885 
-4.65284 83.84857 -138.10123 2.04155 -4.05504 -25.03486 -10.59971 15.85128 -6.27842 0.00403 0.02450 0.00965 -3.75895 6.56423 31.78449 -6.11291 13.05610 3.77691 -113.94199 -64.71384 -80.11606 -64.64555 62.56436 -82.31491 5.64450 10.34474 1.03177 17.48072 16.72620 6.07130 50.59753 -16.70296 66.01599 20.93855 40.68839 109.51179 -4.84821 10.25318 0.85190 19.81457 -23.50694 7.12458 1.57269 47.47354 5.96641 -19.69326 0.02229 -0.00514 -11.03046 -11.33916 -7.97097 -23.39595 -10.93026 -2.01778 6.96628 50.43465 5.13857 23.10899 0.00750 0.01933 -18.30327 -26.83993 0.60781 
-6.73622 85.32738 -137.94139 1.38785 -3.79944 -25.02820 -10.23630 15.03460 -6.41459 0.00427 0.02291 0.00985 -5.51060 7.58828 33.18967 -5.63256 13.38006 4.33798 -113.64690 -64.40791 -79.79599 -64.70140 62.74548 -82.30868 5.75837 9.76219 -1.06500 17.98514 17.10323 6.50254 50.12497 -16.33225 65.73944 20.82024 40.43960 109.34633 -4.90248 9.28008 0.53700 18.17776 -24.35633 12.60781 9.56785 46.58524 -3.95884 -19.59322 0.00539 0.00878 -11.34070 -11.14912 -8.15445 -21.31223 -10.00400 -0.89567 0.11517 48.30504 4.96498 13.23247 -0.31726 0.09641 -3.49353 -26.67014 3.90528 
-8.72093 86.54869 -137.85983 0.74472 -3.48199 -24.93245 -9.73414 14.41933 -6.51325 0.00399 0.02149 0.00974 -7.24679 8.31915 34.48877 -5.20534 13.53476 4.77572 -112.83145 -64.15253 -78.87698 -64.45580 62.91499 -82.58900 5.88581 10.12729 1.09645 18.31580 17.28204 6.90410 49.83150 -15.84146 65.50988 20.68110 40.23195 109.18460 -5.14510 9.45015 1.17717 17.22324 -24.82327 17.69844 18.14257 44.47108 -14.19043 -20.57655 -0.00691 0.01020 -10.83945 -11.45668 -7.76256 -19.65147 -9.42979 -0.02995 -8.14566 45.32123 5.52971 24.82855 0.34859 -0.24883 -8.46493 -22.89118 7.55471 
-10.64505 87.42494 -137.86255 0.10529 -3.11088 -24.77331 -9.12241 13.98028 -6.54883 0.00321 0.02007 0.00946 -8.94167 8.78868 35.66680 -4.87718 13.53662 5.11637 -111.57305 -63.95068 -77.46576 -63.96299 63.06493 -83.17654 6.13706 9.76285 -0.19720 18.43404 17.27836 7.29103 49.72356 -15.25179 65.35615 20.52955 40.05778 108.97378 -5.02344 8.93614 0.93622 16.82025 -24.87952 22.36107 25.61889 41.11312 -23.29941 -21.95642 -0.01015 0.00640 -11.15116 -11.75924 -7.52567 -18.43044 -9.15915 0.60832 -14.47706 42.95916 6.12868 25.91018 0.04439 -0.04028 -4.68338 -20.61153 9.30449 
-12.52127 87.86929 -137.94170 -0.50333 -2.70432 -24.58956 -8.47088 13.68711 -6.48474 0.00200 0.01872 0.00901 -10.56757 9.02850 36.71180 -4.68100 13.39756 5.34659 -110.05376 -63.79873 -75.77525 -63.26963 63.17706 -83.92817 6.42201 9.97766 0.99495 18.31924 17.10862 7.67072 49.79601 -14.59056 65.30517 20.38777 39.90856 108.68976 -5.06760 9.07568 1.26548 16.78759 -24.63718 26.56024 31.28054 37.02237 -30.64535 -23.27034 -0.00832 0.00326 -11.41519 -12.36913 -7.07905 -17.22508 -8.93689 1.14665 -17.14754 41.29182 4.80775 24.94918 -0.00950 0.02267 -1.63243 -19.03512 10.26857 
-14.34282 87.86163 -138.09189 -1.05380 -2.27819 -24.40329 -7.83739 13.51218 -6.30129 0.00072 0.01721 0.00866 -12.09992 9.07139 37.60982 -4.60433 13.12109 5.50783 -108.41911 -63.67651 -73.94150 -62.47804 63.26041 -84.80442 6.70590 9.82472 0.03734 17.99543 16.78737 8.07162 50.01241 -13.90517 65.35818 20.28674 39.76656 108.29001 -4.91768 8.83877 1.10401 16.67803 -24.79988 29.12669 35.48757 33.62920 -35.62761 -24.36298 -0.00503 0.00144 -12.08065 -13.14063 -6.68326 -15.91830 -8.65565 1.63934 -17.43590 40.19017 2.36786 22.45702 -0.02682 0.03874 1.05200 -19.30508 10.89011 
-16.10851 87.46745 -138.31500 -1.53632 -1.83465 -24.21739 -7.24515 13.42911 -5.99547 -0.00044 0.01553 0.00864 -13.51603 8.95000 38.34333 -4.60471 12.70703 5.63102 -106.83939 -63.54091 -72.11600 -61.67202 63.31432 -85.69177 6.96471 10.00006 0.55085 17.53131 16.33257 8.52192 50.31112 -13.25658 65.49629 20.26326 39.60910 107.77393 -4.97442 8.94051 1.35654 16.69414 -25.31431 30.23584 38.63874 31.32500 -38.81041 -25.15304 -0.00121 0.00040 -12.96438 -14.11416 -6.29700 -14.53142 -8.18568 2.09920 -17.04721 37.75312 0.59673 19.62599 0.01273 0.04679 -0.57226 -35.45484 7.92901 
